<svg width="37" height="37" viewBox="0 0 37 37" fill="none" xmlns="http://www.w3.org/2000/svg">
  <path d="M10.7065 30.573H6.16514C5.76366 30.573 5.37863 30.4135 5.09474 30.1297C4.81085 29.8458 4.65137 29.4607 4.65137 29.0593V12.4077" stroke="#C02031" stroke-width="2" stroke-linecap="round" stroke-linejoin="round"/>
  <path d="M30.3861 6.35254H12.2208C11.8193 6.35254 11.4343 6.51203 11.1504 6.79591C10.8665 7.0798 10.707 7.46484 10.707 7.86632V23.0041C10.707 23.4056 10.8665 23.7906 11.1504 24.0745C11.4343 24.3584 11.8193 24.5179 12.2208 24.5179H16.7621V29.0592L24.331 24.5179H30.3861C30.7876 24.5179 31.1726 24.3584 31.4565 24.0745C31.7404 23.7906 31.8999 23.4056 31.8999 23.0041V7.86632C31.8999 7.46484 31.7404 7.0798 31.4565 6.79591C31.1726 6.51203 30.7876 6.35254 30.3861 6.35254V6.35254Z" stroke="#C02031" stroke-width="2" stroke-linecap="round" stroke-linejoin="round"/>
  <path d="M19.1669 17.505C19.1669 17.185 19.1969 16.885 19.2569 16.605C19.3269 16.315 19.4519 16.05 19.6319 15.81C19.8119 15.57 20.0669 15.355 20.3969 15.165C20.5369 15.075 20.7169 14.97 20.9369 14.85C21.1669 14.73 21.3869 14.595 21.5969 14.445C21.8069 14.285 21.9819 14.1 22.1219 13.89C22.2719 13.67 22.3469 13.42 22.3469 13.14C22.3469 12.86 22.2769 12.625 22.1369 12.435C22.0069 12.245 21.8319 12.1 21.6119 12C21.4019 11.9 21.1719 11.85 20.9219 11.85C20.6319 11.85 20.3719 11.915 20.1419 12.045C19.9119 12.165 19.7169 12.315 19.5569 12.495C19.3969 12.675 19.2619 12.86 19.1519 13.05L17.8469 12.15C18.0269 11.74 18.2719 11.39 18.5819 11.1C18.9019 10.81 19.2669 10.59 19.6769 10.44C20.0969 10.29 20.5319 10.215 20.9819 10.215C21.3619 10.215 21.7369 10.275 22.1069 10.395C22.4769 10.505 22.8119 10.68 23.1119 10.92C23.4119 11.16 23.6519 11.465 23.8319 11.835C24.0119 12.205 24.1019 12.65 24.1019 13.17C24.1019 13.49 24.0619 13.775 23.9819 14.025C23.9119 14.275 23.8069 14.5 23.6669 14.7C23.5369 14.89 23.3719 15.065 23.1719 15.225C22.9719 15.385 22.7569 15.54 22.5269 15.69C22.2669 15.85 22.0019 16.005 21.7319 16.155C21.4719 16.305 21.2519 16.485 21.0719 16.695C20.9019 16.895 20.8169 17.165 20.8169 17.505H19.1669ZM19.1969 21V18.93H20.8619V21H19.1969Z" fill="#C02031"/>
</svg>
