<svg width="24" height="24" viewBox="0 0 24 24" fill="none" xmlns="http://www.w3.org/2000/svg">
<path d="M16.9197 14.4702C16.6288 14.323 15.2123 13.6318 14.9476 13.5332C14.6828 13.4389 14.4906 13.3895 14.2977 13.6804C14.1091 13.964 13.5536 14.6131 13.3838 14.8024C13.2141 14.9917 13.0473 15.0062 12.7608 14.8779C12.47 14.7306 11.5409 14.4282 10.4377 13.4389C9.57605 12.6722 9.00235 11.7279 8.8319 11.4371C8.66218 11.1498 8.81304 10.9874 8.95665 10.8438C9.08866 10.7118 9.2475 10.5116 9.39473 10.3375C9.53471 10.1634 9.57968 10.0467 9.68195 9.85809C9.77623 9.65429 9.72764 9.49545 9.65584 9.35184C9.58403 9.20823 9.00597 7.78448 8.76445 7.2173C8.53381 6.65447 8.29228 6.72628 8.11459 6.72628C7.94849 6.71105 7.75557 6.71105 7.56336 6.71105C7.37116 6.71105 7.05711 6.78285 6.79238 7.05846C6.52764 7.3493 5.77987 8.04414 5.77987 9.44975C5.77987 10.859 6.81486 12.2226 6.95847 12.4264C7.1057 12.6149 8.99437 15.5161 11.8919 16.7629C12.5831 17.0537 13.1198 17.2278 13.5391 17.3714C14.2303 17.5905 14.8613 17.56 15.3595 17.4882C15.9108 17.3975 17.0669 16.789 17.3091 16.1094C17.555 15.4254 17.555 14.859 17.4832 14.7306C17.4114 14.5986 17.2228 14.5268 16.932 14.3984L16.9197 14.4702ZM11.6649 21.5948H11.6497C9.93435 21.5948 8.23861 21.1299 6.75756 20.261L6.41015 20.0535L2.78368 20.9979L3.75847 17.4693L3.5242 17.1067C2.56827 15.5843 2.05838 13.8276 2.05838 12.0224C2.05838 6.75674 6.3688 2.46155 11.6722 2.46155C14.2411 2.46155 16.6513 3.46245 18.4645 5.27569C20.2778 7.07369 21.2787 9.48384 21.2787 12.0376C21.2714 17.2996 16.9646 21.5948 11.6685 21.5948H11.6649ZM19.8433 3.89691C17.637 1.76599 14.7358 0.561279 11.6497 0.561279C5.28449 0.561279 0.101541 5.72174 0.0979147 12.0637C0.0979147 14.0887 0.626654 16.0644 1.63916 17.8131L0 23.7707L6.12728 22.1729C7.81577 23.0831 9.71603 23.5705 11.6504 23.5741H11.654C18.0228 23.5741 23.2058 18.4137 23.2094 12.0673C23.2094 8.99645 22.0119 6.10615 19.8288 3.9339L19.8433 3.89691Z" fill="#C02031"/>
</svg>
