<svg width="221" height="50" viewBox="0 0 221 50" fill="none" xmlns="http://www.w3.org/2000/svg">
<g clip-path="url(#clip0_9108_3866)">
<path d="M31.7117 0.73664C30.6559 0.485113 29.5463 0.287485 28.3831 0.179688C28.0609 2.01224 26.2892 14.3191 25.0723 29.1053C27.363 19.0622 29.2063 10.9415 31.7117 0.754607" fill="#A6192E"/>
<path d="M38.9775 21.2181C39.246 24.3622 39.4786 26.7877 39.6934 28.4405C39.9797 28.1351 46.3866 22.9609 49.2499 20.6073C48.8204 17.6069 47.8898 14.7323 46.5118 12.1093C42.6463 17.0679 39.6039 20.4815 38.9775 21.2002" fill="#A6192E"/>
<path d="M29.8147 49.5688C32.0338 39.9749 35.2372 34.046 37.6174 30.363C37.5279 30.4528 35.452 10.8337 35.7383 2.08412C35.2193 1.85056 34.6824 1.65293 34.1277 1.47327C31.3001 13.9059 25.0901 38.2861 24.9469 39.5078C24.6069 42.4542 24.1237 48.6526 24.0879 50.018C24.4279 50.018 24.7679 50.036 25.108 50.036C26.7186 50.036 28.2935 49.8743 29.8326 49.5868" fill="#A6192E"/>
<path d="M22.4598 36.5433C22.9609 20.733 24.9115 4.67122 25.52 0C25.3768 0 25.1979 0.0718649 25.0726 0C22.6208 0 20.2764 0.323392 18.0752 0.916277C19.0058 7.18649 21.565 28.1351 22.4419 36.5433" fill="#A6192E"/>
<path d="M5.88785 9.05504C5.88785 9.05504 5.85205 8.92927 5.83416 8.76758C2.14754 13.1873 0 19.0083 0 25.5121C0 33.6508 3.68661 41.1786 10.2724 45.6882C9.61025 32.3752 8.25014 19.5114 5.90574 9.05504" fill="#A6192E"/>
<path d="M12.8495 47.1972C15.4087 48.5088 18.2899 49.3891 21.4934 49.7844C21.2249 43.9813 17.6994 16.3492 15.6055 1.74268C12.7063 2.87455 10.1114 4.50947 7.91016 6.55762C9.55661 11.7678 12.241 31.7283 12.8495 47.1972Z" fill="#A6192E"/>
<path d="M49.5726 24.7754C49.5726 24.3083 49.5368 23.8232 49.5189 23.3561C47.5861 24.8832 41.8593 29.4646 40.1234 30.9378C38.7633 33.6148 35.8104 36.687 32.3564 48.94C42.3962 45.9217 49.5905 36.6691 49.5905 24.7754" fill="#A6192E"/>
<path d="M38.6915 17.7686C39.9264 16.4211 42.3602 13.6184 45.0626 9.70174C44.5615 8.98309 44.0246 8.28241 43.4519 7.63562C42.6824 6.77325 41.8412 5.96477 40.9464 5.22815C40.0874 4.52747 39.1747 3.89865 38.1904 3.32373C38.1904 8.69563 38.4052 13.6363 38.7094 17.7865" fill="#A6192E"/>
<path d="M80.3897 7.27632C80.3897 9.3065 78.6717 10.8157 76.9358 11.2648C76.7389 11.1031 76.6852 10.7797 76.7568 10.5641C77.8306 10.0791 78.797 9.3065 78.797 8.12073C78.797 7.24039 78.2064 7.15056 77.5979 7.04276C76.8642 6.917 76.6494 6.36004 76.6494 5.76716C76.6494 5.30004 76.9536 4.50952 78.099 4.50952C79.3338 4.50952 80.3897 5.80309 80.3897 7.25835" fill="#A6192E"/>
<path d="M74.591 19.0442C73.4277 21.7571 73.0161 21.8829 70.1885 21.8829C68.1484 21.8829 67.7367 21.6673 67.4325 21.3079C67.0567 20.8588 67.003 19.9245 67.003 18.595V9.37836C67.003 6.6475 67.2357 6.5936 68.4347 6.378L68.9895 6.27021C69.1863 6.12648 69.1684 5.60546 68.9358 5.51562C67.8262 5.56952 66.6809 5.58749 65.5534 5.58749C64.4259 5.58749 63.2448 5.55156 61.9563 5.51562C61.7236 5.62342 61.7236 6.14444 61.9026 6.27021L62.6184 6.378C63.8175 6.55767 64.0501 6.6475 64.0501 9.37836V19.152C64.0501 21.8829 63.8175 21.9188 62.6184 22.1164L61.7773 22.2422V23.0147C62.8511 22.9608 64.2649 22.9249 65.5355 22.9249H68.1841C71.0296 22.9249 73.213 22.9429 74.2867 22.9968C74.591 22.2781 75.1458 20.2839 75.3605 19.1879C75.2352 18.9723 74.8236 18.9005 74.5731 19.0262" fill="#A6192E"/>
<path d="M86.3489 11.3546C86.3489 16.0078 88.5502 22.3499 94.9033 22.3499C99.1447 22.3499 102.563 19.4753 102.563 12.7021C102.563 7.59966 100.04 1.70674 94.1159 1.70674C90.3935 1.70674 86.3489 4.16811 86.3489 11.3546ZM105.802 12.0912C105.802 18.5591 101.006 23.392 94.5454 23.392C87.3153 23.392 83.1455 18.1638 83.1455 12.3248C83.1455 5.62337 87.888 0.646729 94.5991 0.646729C101.99 0.646729 105.802 6.10846 105.802 12.0912Z" fill="#A6192E"/>
<path d="M124.307 10.0072C124.128 10.2228 123.663 10.2408 123.484 10.0611C123.036 8.40821 121.873 6.2343 118.455 6.2343C115.037 6.2343 111.851 8.58788 111.851 13.9777C111.851 19.3676 115.287 22.2961 118.634 22.2961C121.98 22.2961 123.323 20.0863 124.038 18.3795C124.271 18.1459 124.683 18.2537 124.808 18.4873C124.611 20.248 123.931 21.9727 123.555 22.4758C123.251 22.5297 122.929 22.6375 122.66 22.7093C122.088 22.889 120.298 23.3381 118.616 23.3381C116.057 23.3381 113.855 22.8171 111.994 21.5775C109.9 20.1941 108.308 17.8045 108.308 14.373C108.308 11.3008 109.65 8.91127 111.565 7.42007C113.48 5.94684 116.092 5.19226 118.705 5.19226C120.191 5.19226 121.962 5.46175 123.179 5.76718C123.484 5.83904 123.663 5.87498 123.895 5.92888C123.949 6.53973 124.003 8.08482 124.253 10.0252" fill="#A6192E"/>
<path d="M142.149 9.98919C141.97 10.2048 141.505 10.2227 141.326 10.0431C140.878 8.39019 139.715 6.19831 136.315 6.19831C132.915 6.19831 129.729 8.56985 129.729 13.9597C129.729 19.3496 133.165 22.296 136.494 22.296C139.822 22.296 141.183 20.0862 141.898 18.3794C142.131 18.1459 142.543 18.2357 142.668 18.4872C142.471 20.2479 141.791 21.9906 141.433 22.4937C141.129 22.5476 140.807 22.6554 140.538 22.7272C139.966 22.9069 138.176 23.3561 136.512 23.3561C133.953 23.3561 131.769 22.835 129.908 21.5954C127.814 20.194 126.239 17.8045 126.239 14.355C126.239 11.2828 127.581 8.87528 129.496 7.38408C131.411 5.91085 134.024 5.13831 136.619 5.13831C138.087 5.13831 139.876 5.4078 141.075 5.71323C141.379 5.78509 141.558 5.82102 141.791 5.87492C141.845 6.48577 141.898 8.03087 142.149 9.97122" fill="#A6192E"/>
<path d="M149.147 19.1341C149.147 21.9368 149.38 22.0266 150.579 22.1883L151.152 22.2602C151.331 22.4398 151.295 22.9249 151.098 23.0327C149.97 22.9788 148.807 22.9609 147.68 22.9609C146.552 22.9609 145.335 22.9788 144.208 23.0327C144.011 22.9249 143.975 22.4578 144.154 22.2602L144.727 22.1883C145.926 22.0266 146.159 21.9548 146.159 19.1341V9.28856C146.159 6.48583 145.926 6.396 144.727 6.25227L144.154 6.16244C143.975 5.98278 144.011 5.49769 144.208 5.38989C145.335 5.44379 146.499 5.46176 147.68 5.46176C148.861 5.46176 149.953 5.42583 151.098 5.38989C151.295 5.49769 151.331 5.96481 151.152 6.16244L150.579 6.25227C149.362 6.41397 149.147 6.48583 149.147 9.28856V19.1341Z" fill="#A6192E"/>
<path d="M159.562 7.77941C159.562 6.68347 159.526 6.62957 158.864 6.62957H157.433C155.07 6.62957 154.372 6.91703 153.424 9.05501C153.245 9.21671 152.708 9.12688 152.601 8.87535C153.03 7.45602 153.424 5.82109 153.603 4.88685C153.656 4.81499 153.746 4.77905 153.889 4.77905C153.996 4.77905 154.086 4.79702 154.158 4.88685C154.283 5.5516 154.641 5.56957 156.395 5.56957H166.864C168.117 5.56957 168.51 5.4977 168.815 4.88685C168.922 4.83295 169.029 4.77905 169.119 4.77905C169.28 4.77905 169.405 4.83295 169.459 4.90482C169.208 5.98279 168.993 8.24653 169.065 9.09095C168.94 9.30654 168.492 9.36044 168.278 9.18078C167.938 7.13263 167.454 6.62957 164.698 6.62957H163.231C162.569 6.62957 162.533 6.68347 162.533 7.77941V19.152C162.533 21.9368 162.766 22.0266 163.965 22.1524L164.895 22.2602C165.074 22.4399 165.056 22.9249 164.842 23.0327C163.356 22.9788 162.193 22.9609 161.065 22.9609C159.938 22.9609 158.721 22.9788 157.093 23.0327C156.878 22.9249 156.86 22.4039 157.039 22.2602L158.113 22.1344C159.312 21.9727 159.544 21.9548 159.544 19.152V7.77941H159.562Z" fill="#A6192E"/>
<path d="M178.192 15.3252C178.926 15.3252 179.033 15.2713 178.818 14.6425L177.727 11.4805C177.261 10.0971 177.118 9.59401 176.993 9.41434H176.939C176.832 9.59401 176.599 10.2588 176.152 11.4805L175.06 14.5527C174.792 15.3073 174.845 15.3073 175.472 15.3073H178.192V15.3252ZM175.06 16.511C174.38 16.511 174.398 16.511 174.165 17.2117L173.092 20.3737C172.573 21.9188 172.68 21.9727 173.646 22.1344L174.398 22.2602C174.577 22.4399 174.559 22.9249 174.344 23.0327C173.503 22.9788 172.644 22.9788 171.588 22.9609C170.729 22.9609 169.924 22.9788 168.993 23.0327C168.814 22.907 168.779 22.5117 168.958 22.2602L169.745 22.1344C170.497 22.0087 170.783 21.7931 171.177 20.9307C171.481 20.248 171.91 19.1341 172.447 17.7147L176.026 8.35434C176.331 7.50993 176.599 6.88111 176.528 6.43195C177.44 6.25229 178.317 5.17432 178.353 5.17432C178.55 5.17432 178.693 5.24618 178.8 5.37194C179.212 6.55772 179.552 7.79738 179.982 8.98316L183.74 19.9965C184.348 21.7571 184.473 21.9188 185.798 22.1883L186.192 22.2602C186.406 22.4399 186.406 22.889 186.209 23.0327C185.136 22.9788 184.169 22.9609 182.809 22.9609C181.682 22.9609 180.536 23.0148 179.624 23.0327C179.409 22.907 179.391 22.4219 179.552 22.2602L180.125 22.1883C181.055 22.0446 181.198 21.9009 180.805 20.787L179.57 17.2117C179.337 16.511 179.23 16.511 178.496 16.511H175.024H175.06Z" fill="#A6192E"/>
<path d="M203.175 18.4513C203.175 19.2418 203.175 22.4757 203.247 23.0866C203.05 23.3741 202.674 23.4818 202.37 23.4639C201.958 22.9069 201.207 22.0086 199.363 19.8527L193.35 12.8279C191.704 10.8696 190.863 9.89938 190.415 9.50413C190.344 9.50413 190.344 9.79159 190.344 11.193V16.3313C190.344 18.3076 190.362 20.733 190.809 21.5235C191.042 21.9188 191.489 22.0985 192.115 22.1883L192.688 22.2601C192.921 22.4398 192.885 22.9429 192.634 23.0147C191.686 22.9608 190.684 22.9429 189.699 22.9429C188.626 22.9429 187.928 22.9788 187.033 23.0147C186.836 22.889 186.782 22.4398 186.979 22.2601L187.552 22.1344C188.035 22.0266 188.5 21.9547 188.679 21.5235C189.019 20.715 189.019 18.4154 189.019 16.3313V10.097C189.019 8.04886 189.037 7.61767 188.16 6.86309C187.874 6.62953 187.158 6.41394 186.8 6.34207L186.406 6.27021C186.227 6.10851 186.245 5.58749 186.514 5.51562C187.498 5.62342 188.912 5.58749 189.556 5.58749C190.093 5.58749 190.719 5.56952 191.328 5.51562C191.757 6.6475 194.567 9.97125 195.48 10.9594L198.057 13.7981C199.131 15.0198 201.529 17.8045 201.779 17.9662C201.851 17.8764 201.851 17.7506 201.851 17.3374V12.1991C201.851 10.2228 201.833 7.79734 201.368 7.00682C201.135 6.61156 200.723 6.4319 200.079 6.34207L199.489 6.27021C199.256 6.09054 199.292 5.58749 199.542 5.51562C200.544 5.56952 201.493 5.58749 202.495 5.58749C203.605 5.58749 204.267 5.56952 205.197 5.51562C205.412 5.64139 205.448 6.09054 205.251 6.27021L204.661 6.39597C204.159 6.50377 203.73 6.57563 203.551 7.00682C203.193 7.8153 203.193 10.115 203.193 12.1991V18.4872L203.175 18.4513Z" fill="#A6192E"/>
<path d="M209.046 9.36044C209.046 6.57568 208.813 6.46788 207.596 6.30618L207.185 6.25228C207.006 6.07262 207.024 5.58753 207.238 5.47974C208.223 5.53363 209.44 5.5516 210.585 5.5516H215.524C217.189 5.5516 218.692 5.51567 219.014 5.47974C219.121 5.92889 219.265 8.01297 219.426 9.14485C219.318 9.36044 218.799 9.41434 218.602 9.25264C218.191 7.72551 217.797 7.0967 216.974 6.86314C216.383 6.70144 215.596 6.62957 214.916 6.62957H213.18C212.07 6.62957 212.07 6.68347 212.07 8.17467V12.6303C212.07 13.313 212.088 13.3489 212.697 13.3489H213.931C216.186 13.3489 216.58 13.331 216.813 12.1991L216.992 11.3008C217.206 11.1211 217.69 11.1211 217.815 11.3367C217.797 12.0374 217.743 12.9896 217.743 13.9778C217.743 14.9659 217.797 15.9001 217.815 16.7446C217.69 16.9242 217.189 16.9242 216.992 16.7805L216.813 15.7205C216.634 14.6245 216.186 14.5527 213.931 14.5527H212.697C212.106 14.5527 212.07 14.6066 212.07 15.2534V18.5951C212.07 19.9425 212.124 20.8948 212.5 21.3259C212.822 21.6853 213.251 21.8829 215.417 21.9009C218.71 21.9188 219.265 21.1822 220.177 19.0622C220.41 18.8825 220.857 18.9544 221 19.2239C220.839 20.3378 220.285 22.3321 219.909 23.0327C218.763 22.9788 216.544 22.9609 213.52 22.9609H210.567C209.422 22.9609 207.847 22.9788 206.684 23.0327C206.469 22.9249 206.451 22.4578 206.63 22.2602L207.596 22.1524C208.813 22.0266 209.046 21.9368 209.046 19.152V9.36044Z" fill="#A6192E"/>
<path d="M69.4912 38.5016C70.0997 38.5016 70.1891 38.4657 70.0102 37.9447L69.0975 35.3216C68.7038 34.1538 68.5964 33.7406 68.489 33.5969H68.4532C68.3637 33.7586 68.1669 34.2975 67.809 35.3216L66.8962 37.8908C66.6815 38.5196 66.7173 38.5196 67.2363 38.5196H69.4733L69.4912 38.5016ZM66.8962 39.4898C66.3415 39.4898 66.3594 39.4898 66.1625 40.0827L65.2856 42.7057C64.8561 43.9993 64.9456 44.0352 65.733 44.179L66.3594 44.2868C66.5204 44.4305 66.4846 44.8258 66.3236 44.9156C65.6256 44.8797 64.9277 44.8797 64.0329 44.8617C63.317 44.8617 62.6549 44.8797 61.9032 44.9156C61.76 44.8078 61.7243 44.4844 61.8853 44.2868L62.5296 44.179C63.1559 44.0712 63.3886 43.8915 63.7107 43.1729C63.9613 42.5979 64.3192 41.6817 64.7666 40.4959L67.7195 32.6986C67.97 31.9979 68.1848 31.4768 68.1311 31.0996C68.8827 30.9379 69.5986 30.0396 69.6344 30.0396C69.8133 30.0396 69.9207 30.1114 70.0102 30.2192C70.3502 31.2074 70.6365 32.2314 70.9766 33.2196L74.0726 42.4003C74.5737 43.8735 74.6811 43.9993 75.7728 44.2149L76.0949 44.2868C76.256 44.4305 76.256 44.8078 76.1128 44.9156C75.2359 44.8797 74.4305 44.8617 73.321 44.8617C72.3904 44.8617 71.4598 44.9156 70.6902 44.9156C70.5113 44.8078 70.4934 44.4125 70.6187 44.2868L71.084 44.2149C71.8535 44.1071 71.9609 43.9813 71.6387 43.0651L70.6366 40.0827C70.4397 39.4898 70.3502 39.4898 69.7596 39.4898H66.8962Z" fill="#A6192E"/>
<path d="M84.4343 33.5609C84.4343 31.2433 84.2374 31.1894 83.2174 31.0277L82.8415 30.9738C82.6984 30.8121 82.7163 30.4528 82.8952 30.3629C83.7542 30.4168 84.7206 30.4348 85.6691 30.4348C86.6176 30.4348 87.6019 30.4168 88.5504 30.3629C88.7294 30.4528 88.7294 30.8301 88.5862 30.9738L88.1209 31.0277C87.1187 31.1714 86.9219 31.2433 86.9219 33.5609V38.5735C86.9219 41.5918 87.8346 44.143 90.8232 44.143C93.6329 44.143 94.8141 41.9691 94.8141 38.6454V35.8965C94.8141 34.2616 94.7962 32.2135 94.4025 31.5846C94.2056 31.2612 93.8656 31.0996 93.3287 31.0097L92.8992 30.9558C92.7023 30.7941 92.7202 30.4168 92.935 30.345C93.6687 30.3989 94.492 30.4168 95.3331 30.4168C96.2458 30.4168 96.8185 30.3989 97.6238 30.345C97.8028 30.4528 97.8385 30.8121 97.6596 30.9558L97.1943 31.0636C96.7827 31.1535 96.389 31.2433 96.2458 31.5846C95.9415 32.2314 95.9415 34.1718 95.9415 35.8965V38.5016C95.9415 40.4959 95.6373 42.3284 94.5099 43.5681C93.4003 44.7898 91.7896 45.221 90.3042 45.221C88.282 45.221 86.8503 44.7718 85.866 43.8196C84.8996 42.8854 84.4522 41.3403 84.4522 39.1305V33.5609H84.4343Z" fill="#A6192E"/>
<path d="M116.755 41.2505C116.755 43.2447 116.969 44.0532 118.848 44.0532C120.334 44.0532 121.658 43.0651 121.658 41.1068C121.658 38.861 120.137 37.5135 117.757 37.5135C116.808 37.5135 116.772 37.6393 116.772 38.0884V41.2325L116.755 41.2505ZM116.755 36.1122C116.755 36.6871 116.826 36.705 117.685 36.705C119.707 36.705 120.638 35.8966 120.638 33.9203C120.638 31.944 119.242 31.2253 117.9 31.2253C116.826 31.2253 116.755 31.2613 116.755 32.1416V36.0942V36.1122ZM114.267 33.6867C114.267 31.5847 114.249 31.3152 113.229 31.2253L112.674 31.1535C112.531 30.9918 112.531 30.6504 112.674 30.5247C113.641 30.4348 115.215 30.327 117.578 30.327C119.385 30.327 120.835 30.5067 121.801 31.0636C122.786 31.6565 123.305 32.5369 123.305 33.9203C123.305 35.2138 122.374 36.202 120.871 36.705C120.781 36.705 120.745 36.7949 120.745 36.8308C120.745 36.8667 120.799 36.9206 120.924 36.9745C122.571 37.244 124.396 38.304 124.396 40.7834C124.396 41.7895 124.074 42.8854 123.09 43.6939C122.07 44.5563 120.656 44.9156 118.204 44.9156C117.256 44.9156 116.361 44.8437 115.538 44.8437C114.589 44.8437 113.587 44.8617 112.638 44.9156C112.459 44.8258 112.442 44.4485 112.603 44.2868L113.086 44.2149C114.088 44.0892 114.285 44.0173 114.285 41.6996V33.6867H114.267Z" fill="#A6192E"/>
<path d="M137.891 36.8488C137.891 37.5495 137.891 37.5854 138.928 37.5854C141.04 37.5854 142.007 36.5433 142.007 34.4593C142.007 32.7345 140.915 31.2253 139.036 31.2253C137.926 31.2253 137.891 31.2792 137.891 32.3033V36.8488ZM135.403 33.6867C135.403 31.5847 135.385 31.3152 134.365 31.2253L133.81 31.1535C133.667 30.9918 133.667 30.6504 133.828 30.5247C135.188 30.3989 137.014 30.327 138.785 30.327C140.557 30.327 141.917 30.5426 142.866 31.0816C143.975 31.6745 144.763 32.6986 144.763 34.2796C144.763 36.2918 143.241 37.2979 142.186 37.7291C142.06 37.801 142.096 37.9806 142.186 38.1064C143.904 41.0708 144.995 42.9214 145.997 43.7837C146.606 44.3048 147.232 44.4485 147.483 44.4664C147.59 44.5563 147.59 44.7898 147.537 44.9156C147.268 44.9875 146.857 45.0414 146.105 45.0414C144.047 45.0414 142.919 44.179 141.613 42.1488C141.022 41.2325 140.432 40.0288 139.913 39.1664C139.537 38.5017 139.286 38.4118 138.571 38.4118C137.926 38.4118 137.908 38.4298 137.908 38.8969V41.6996C137.908 44.0173 138.105 44.0892 139.107 44.2149L139.573 44.2868C139.734 44.4485 139.698 44.8258 139.537 44.9156C138.588 44.8797 137.622 44.8617 136.674 44.8617C135.725 44.8617 134.759 44.8797 133.774 44.9156C133.595 44.8258 133.542 44.4485 133.721 44.2868L134.204 44.2149C135.224 44.0892 135.421 44.0173 135.421 41.6996V33.6867H135.403Z" fill="#A6192E"/>
<path d="M160.296 29.3927C160.117 29.3568 159.974 28.9975 160.028 28.7819L163.517 26.1948C163.84 25.9612 164.036 25.8534 164.18 25.8534C164.394 25.8534 164.609 25.9971 164.878 26.4642C165.092 26.8236 165.218 27.2727 165.182 27.3985C165.092 27.5782 164.878 27.7758 164.466 27.9375L160.278 29.3927H160.296ZM157.146 33.5609C157.146 31.2433 156.95 31.1534 155.947 31.0097L155.607 30.9738C155.464 30.83 155.482 30.4168 155.661 30.3449C156.484 30.3988 157.486 30.4168 158.435 30.4168H162.551C163.929 30.4168 165.182 30.3988 165.45 30.3449C165.54 30.7222 165.665 32.447 165.79 33.3992C165.701 33.5789 165.271 33.6148 165.11 33.489C164.752 32.2134 164.43 31.6924 163.75 31.4948C163.267 31.369 162.605 31.2972 162.032 31.2972H160.6C159.67 31.2972 159.67 31.3331 159.67 32.5907V36.2918C159.67 36.8487 159.688 36.8847 160.189 36.8847H161.227C163.106 36.8847 163.428 36.8667 163.625 35.9145L163.768 35.1779C163.947 35.0341 164.359 35.0341 164.466 35.1958C164.448 35.7887 164.394 36.5792 164.394 37.3877C164.394 38.1962 164.43 38.9867 164.466 39.6874C164.359 39.8311 163.947 39.8311 163.768 39.7054L163.625 38.825C163.482 37.9087 163.106 37.8548 161.227 37.8548H160.189C159.688 37.8548 159.67 37.9087 159.67 38.4477V41.2325C159.67 42.3464 159.706 43.1369 160.028 43.5142C160.278 43.8196 160.654 43.9813 162.462 43.9993C165.2 44.0172 165.665 43.4064 166.434 41.6277C166.631 41.466 166.989 41.5379 167.115 41.7535C166.989 42.6698 166.524 44.3406 166.22 44.9335C165.271 44.8796 163.428 44.8617 160.905 44.8617H158.453C157.504 44.8617 156.198 44.8796 155.214 44.9335C155.035 44.8437 155.017 44.4484 155.178 44.3047L155.983 44.2149C157.003 44.1071 157.182 44.0352 157.182 41.7176V33.5789L157.146 33.5609Z" fill="#A6192E"/>
<path d="M176.152 44.2867C175.758 43.8196 175.472 42.3104 175.508 40.963C175.633 40.7474 176.009 40.7114 176.17 40.8731C176.546 41.987 177.709 44.3406 179.839 44.3406C181.467 44.3406 182.398 43.3345 182.398 42.005C182.398 40.7474 181.825 39.7413 180.197 38.825L179.266 38.304C177.655 37.3877 176.224 36.0582 176.224 34.0819C176.224 31.926 177.817 30.0754 180.966 30.0754C182.094 30.0754 182.899 30.3449 183.919 30.5426C184.152 31.0276 184.367 32.4649 184.367 33.507C184.259 33.7046 183.865 33.7226 183.686 33.5789C183.364 32.429 182.613 30.9738 180.769 30.9738C179.051 30.9738 178.336 32.1236 178.336 33.2734C178.336 34.1897 178.962 35.1778 180.376 35.9504L181.718 36.669C183.114 37.4057 184.671 38.7711 184.671 40.9809C184.671 43.4782 182.792 45.2569 179.678 45.2569C177.691 45.2569 176.564 44.5921 176.152 44.3406" fill="#A6192E"/>
<path d="M198.236 41.6996C198.236 44.0173 198.433 44.0892 199.435 44.2149L199.918 44.2868C200.061 44.4305 200.043 44.8437 199.882 44.9156C198.934 44.8797 197.968 44.8437 197.019 44.8437C196.071 44.8437 195.05 44.8617 194.12 44.9156C193.941 44.8258 193.923 44.4305 194.084 44.2868L194.567 44.2149C195.569 44.0892 195.766 44.0173 195.766 41.6996V33.5609C195.766 31.2433 195.569 31.1714 194.567 31.0457L194.084 30.9738C193.941 30.8121 193.959 30.4169 194.12 30.327C195.068 30.3809 196.035 30.3989 197.019 30.3989C198.003 30.3989 198.934 30.3809 199.882 30.327C200.043 30.4169 200.079 30.8121 199.918 30.9738L199.435 31.0457C198.415 31.1714 198.236 31.2433 198.236 33.5609V41.6996Z" fill="#A6192E"/>
<path d="M213.484 41.2504C213.484 42.3464 213.519 43.1369 213.842 43.5142C214.11 43.8196 214.45 43.9993 216.168 43.9993C218.566 43.9993 218.906 43.8915 219.891 41.6457C220.105 41.5379 220.445 41.5918 220.553 41.7714C220.374 42.6877 219.908 44.3586 219.658 44.9515C218.745 44.9155 216.902 44.8796 214.486 44.8796H212.249C211.157 44.8796 210.083 44.8976 209.171 44.9515C209.01 44.8616 208.938 44.4304 209.135 44.3226L209.779 44.2149C210.799 44.0352 210.978 44.0172 210.978 41.7355V33.5968C210.978 31.3151 210.781 31.2612 209.779 31.0995L209.171 31.0097C209.028 30.9019 209.028 30.4707 209.206 30.3809C210.28 30.4348 211.247 30.4527 212.249 30.4527C213.251 30.4527 214.164 30.4348 215.112 30.3809C215.309 30.4707 215.327 30.9198 215.148 31.0097L214.683 31.0995C213.663 31.2612 213.484 31.3151 213.484 33.5968V41.2864V41.2504Z" fill="#A6192E"/>
</g>
<defs>
<clipPath id="clip0_9108_3866">
<rect width="221" height="50" fill="white"/>
</clipPath>
</defs>
</svg>
